<svg width="1366" height="5255" viewBox="0 0 1366 5255" fill="none" xmlns="http://www.w3.org/2000/svg"><g filter="url(#filter0_d_1297_440)" opacity=".03" clip-path="url(#clip0_1297_440)"><path d="M572.658 3593.92l.987-291.66-11.898.08-1.007 296.28 103.86 110.76-1.124 369.73 96.929 96.93a37.645 37.645 0 00-8.432 25.96 37.044 37.044 0 0011.362 24.65 37.073 37.073 0 0025.131 10.27 37.68 37.68 0 0025.575-9.56 37.77 37.77 0 0012.456-24.32c.961-9.35-1.634-18.7-7.269-26.17a36.988 36.988 0 00-23.138-14.17 37.614 37.614 0 00-26.738 5.37l-94.033-94.03 1.273-369.36-103.934-110.76zm216.348 579.92c6.672-.02 13.058 2.6 17.756 7.3a24.94 24.94 0 017.295 17.75 25.423 25.423 0 01-4.427 13.79 25.489 25.489 0 01-11.244 9.15 25.283 25.283 0 01-14.373 1.53c-4.826-.91-9.27-3.2-12.786-6.61a24.967 24.967 0 01-6.666-12.78c-.92-4.83-.402-9.84 1.489-14.4a25.46 25.46 0 019.153-11.28 25.391 25.391 0 0113.803-4.45zm-2.055-495.11l-1.124 369.73 98.848 98.85-.926 294.91a37.454 37.454 0 00-17.26 10.83 37.455 37.455 0 00-9.059 18.24 37.04 37.04 0 001.851 20.2c2.483 6.42 6.71 12 12.207 16.12a36.78 36.78 0 0018.914 7.21c6.867.6 13.781-.73 19.964-3.84a37.597 37.597 0 0015.046-13.75 37.342 37.342 0 005.628-19.55 37.105 37.105 0 00-10.298-25.48 37.066 37.066 0 00-25.014-11.35l1.054-298.58-98.885-98.88 1.273-369.36-103.859-110.76 1.025-291.63-11.936.05-1.007 296.35 103.558 110.69zm131.851 799.15a25.451 25.451 0 01-5.737 16.09 25.513 25.513 0 01-14.616 8.87 25.156 25.156 0 01-16.85-2.37 24.971 24.971 0 01-11.422-12.55 25.224 25.224 0 01-.801-17.01 25.555 25.555 0 0110.184-13.74 25.356 25.356 0 0116.539-4.22c5.82.54 11.254 3.09 15.374 7.21 2.35 2.3 4.209 5.06 5.468 8.1a24.601 24.601 0 011.861 9.62zm-316.411-305.49l1.237-360.59a21.432 21.432 0 01-12.218-8.94 21.555 21.555 0 01-3.287-14.8 21.933 21.933 0 017.257-13.42 21.884 21.884 0 0114.239-5.43 21.582 21.582 0 0114.228 5.22 21.486 21.486 0 017.232 13.31 21.806 21.806 0 01-3.317 14.86 21.945 21.945 0 01-12.236 9.11l-1.096 363.01-52.301 115.57a21.18 21.18 0 016.29 12.93c.529 4.92-.67 9.88-3.392 14.04a21.605 21.605 0 01-11.528 8.77 21.36 21.36 0 01-14.411-.51 21.143 21.143 0 01-10.725-9.56 21.28 21.28 0 01-2.151-14.24 21.565 21.565 0 017.402-12.44 21.475 21.475 0 0113.583-4.97c1.483-.01 2.961.13 4.417.4l50.777-112.32zm-499.602 522.17a37.287 37.287 0 008.152-11.98 37.05 37.05 0 002.947-14.16c.021-4.9-.908-9.74-2.735-14.27l115.653-73.07 1.496-422.77 107.614-65.48 6.5-1080.36-11.936.05-6.471 1073.63-107.802 65.23-1.761 423.03-110.124 69.5c-.602-.6-1.166-1.17-1.768-1.77a37.04 37.04 0 00-19.06-10.3 37.447 37.447 0 00-21.657 2.1 37.78 37.78 0 00-16.93 13.78 37.63 37.63 0 00-6.48 20.8 37.138 37.138 0 006.159 20.8 36.975 36.975 0 0016.716 13.76 37.276 37.276 0 0021.623 2.07 37.778 37.778 0 0019.221-10.32l.643-.27zm-51.335-25.99c-.123-3.4.44-6.78 1.654-9.96a25.372 25.372 0 015.416-8.54 25.394 25.394 0 018.313-5.77 25.294 25.294 0 019.88-2.07c3.394-.02 6.75.64 9.87 1.96a24.93 24.93 0 018.282 5.67 24.938 24.938 0 015.37 8.48 25.137 25.137 0 011.601 9.94 25.363 25.363 0 01-4.392 13.84 25.48 25.48 0 01-11.273 9.18 25.168 25.168 0 01-14.417 1.49 24.877 24.877 0 01-12.785-6.69 25.015 25.015 0 01-7.556-17.57l.037.04zm95.13-323.52a21.25 21.25 0 01-15.007-4.58 21.16 21.16 0 01-7.72-13.64 21.46 21.46 0 013.749-15.3 21.573 21.573 0 0113.186-8.68l.586-213.33 112.753-75.14.78-223.45a21.173 21.173 0 01-12.018-8.7 21.272 21.272 0 01-3.347-14.49 21.573 21.573 0 016.95-13.23 21.528 21.528 0 0113.87-5.55 21.213 21.213 0 0114.048 4.84 21.138 21.138 0 017.4 12.86 21.478 21.478 0 01-2.845 14.65 21.604 21.604 0 01-11.706 9.3l-.806 229.87-112.754 75.14-.711 207.06a21.126 21.126 0 0113.32 8.5 21.235 21.235 0 013.718 15.38 21.553 21.553 0 01-7.932 13.8 21.476 21.476 0 01-15.212 4.61l-.302.08zm929.756 268.98a36.706 36.706 0 0020.78-10.48c6-5.89 9.87-13.62 10.98-21.94 1.11-8.31-.61-16.74-4.87-23.92a36.926 36.926 0 00-18.64-15.67 37.367 37.367 0 00-24.44-.72 37.852 37.852 0 00-19.78 14.54 37.64 37.64 0 00-6.66 23.58c.47 8.36 3.75 16.3 9.29 22.54a37.053 37.053 0 0021.29 11.85l-.5 121.62 49.54 37.79-2.45 635.95 11.93-.05 2.67-642.1-49.66-37.45.52-115.54zm-30.52-36.51c.02-5.84 2.06-11.5 5.78-16.02 3.72-4.53 8.88-7.64 14.6-8.81 5.72-1.17 11.66-.31 16.79 2.41 5.14 2.72 9.16 7.15 11.37 12.53 2.21 5.38 2.49 11.37.78 16.96a25.461 25.461 0 01-10.16 13.69 25.375 25.375 0 01-16.5 4.22c-5.8-.54-11.22-3.08-15.33-7.19a24.81 24.81 0 01-5.46-8.14 24.94 24.94 0 01-1.87-9.65zM566.744 5939.76l11.936-.05.852-204.65-42.014-42.01 1.261-302.99-38.554-38.56.499-119.73 41.831-31.98 2.015-484.06a36.865 36.865 0 0018.814-10.17 37.732 37.732 0 0011.116-22.16 37.225 37.225 0 00-5.084-24.15 37.002 37.002 0 00-19.062-15.57 37.465 37.465 0 00-24.713-.2 37.826 37.826 0 00-19.565 15.27 37.604 37.604 0 00-5.869 24.06 37.052 37.052 0 0010.391 22.33 37.057 37.057 0 0022.111 10.86l-2.026 477.69-41.644 32.39-.807 130.42 38.591 38.59-1.299 302.96 42.052 42.05-.832 199.66zM512.012 4679.6a25.476 25.476 0 015.736-16.09 25.516 25.516 0 0114.617-8.87 25.157 25.157 0 0116.85 2.37 25.011 25.011 0 0111.422 12.55 25.236 25.236 0 01.801 17.01 25.519 25.519 0 01-10.184 13.74 25.423 25.423 0 01-16.539 4.23 25.061 25.061 0 01-15.374-7.22 24.725 24.725 0 01-5.435-8.11 25.006 25.006 0 01-1.894-9.61zm-97.587-147.8l-60.428-73.4.343-73.39 61.007-83.57.406-97.6a37.832 37.832 0 0017.811-8.95 37.811 37.811 0 0010.786-16.78 37.41 37.41 0 00.714-19.86 37.013 37.013 0 00-9.56-17.34 36.9 36.9 0 00-14.943-9.47 37.341 37.341 0 00-17.684-1.47 37.723 37.723 0 00-16.436 6.86 37.88 37.88 0 00-11.48 13.64 37.607 37.607 0 00-3.936 17.35c.098 6 1.64 11.88 4.496 17.14a36.952 36.952 0 0011.915 13.07 37.118 37.118 0 0016.645 6.05l-.389 93.37-61.044 83.61-.529 81.7 60.278 73.24-3.683 911.82 11.898-.09 3.813-915.93zm-30.512-364.28a25.333 25.333 0 014.268-14.02 25.428 25.428 0 0111.324-9.34 25.221 25.221 0 0114.557-1.51c4.882.94 9.362 3.32 12.871 6.83a24.793 24.793 0 015.474 8.13 24.96 24.96 0 011.903 9.64c-.01 3.31-.677 6.59-1.963 9.66a25.464 25.464 0 01-5.525 8.19 25.11 25.11 0 01-14.004 7.08l-7.554.03a25.145 25.145 0 01-13.984-6.93 24.652 24.652 0 01-5.515-8.06 24.76 24.76 0 01-1.966-9.58l.114-.12zm418.098 1210.03l1.138-273.15-49.549-37.57.492-118.37a21.106 21.106 0 01-12.003-8.8 21.277 21.277 0 01-3.232-14.57c.715-5.1 3.244-9.79 7.122-13.2a21.523 21.523 0 0113.991-5.37 21.141 21.141 0 0121.192 18.13 21.468 21.468 0 01-3.168 14.63 21.637 21.637 0 01-11.966 9.06l-.468 112.55 49.511 37.53-1.2 279.08-11.86.05zm149.987-300.06l-1.261 302.92-38.913 38.91-.499 119.74 41.604 31.59-2.038 489.65-11.936.05 2.013-483.46-41.604-31.59.581-130.57 38.876-38.88 1.299-302.96 42.365-42.36.756-190.55a21.142 21.142 0 01-11.656-9.26 21.276 21.276 0 01-2.674-14.68 21.632 21.632 0 017.616-12.93 21.546 21.546 0 0114.18-4.84 21.254 21.254 0 0113.803 5.61c3.76 3.48 6.14 8.21 6.68 13.32.54 5.11-.78 10.26-3.72 14.51a21.61 21.61 0 01-12.295 8.59l-.813 195.13-42.364 42.06zm145.812-1457.01l-41.6-31.59 2.04-489.66 11.93-.05-2.01 483.46 41.6 31.59-.54 130.84-38.91 38.91-1.3 302.96-42.37 42.37-.79 190.59c4.88 1.58 9.01 4.88 11.63 9.29 2.63 4.4 3.56 9.62 2.64 14.69-.92 5.07-3.64 9.65-7.66 12.9a21.451 21.451 0 01-14.2 4.8 21.203 21.203 0 01-13.79-5.66 21.164 21.164 0 01-6.627-13.34 21.49 21.49 0 013.777-14.5c2.96-4.23 7.34-7.27 12.33-8.55l.78-195.08 42.4-42.41 1.26-302.92 38.91-38.91.5-119.73zm152.75 815.95l60.24 73.21-.27 73.38-61.05 83.62-.4 97.6a36.923 36.923 0 00-19.27 10.24 37.72 37.72 0 00-10.94 22.17c-1.05 8.39.77 16.87 5.17 24.05a36.976 36.976 0 0019.04 15.48c7.94 2.85 16.62 2.91 24.64.19a37.795 37.795 0 0019.54-15.18 37.58 37.58 0 005.94-23.97 37.008 37.008 0 00-10.23-22.33 36.977 36.977 0 00-21.95-11.01l.38-93.44 61.01-83.57.34-81.59-60.28-73.25 3.83-911.59-11.97.01-3.77 915.98zm30.55 364.31c0 4.83-1.39 9.57-4 13.66a25.535 25.535 0 01-10.72 9.4 25.374 25.374 0 01-14.05 2.15c-4.79-.64-9.27-2.65-12.93-5.77a24.991 24.991 0 01-7.69-11.87 25.22 25.22 0 01-.03-14.2c1.35-4.65 4-8.82 7.65-12.03 3.64-3.2 8.12-5.29 12.9-6.04l7.55-.03a24.36 24.36 0 0113.99 6.93 24.737 24.737 0 017.44 17.69l-.11.11zm-672.161-298.27c15.767 15.79 35.899 26.5 57.851 30.78 21.951 4.29 44.735 1.96 65.469-6.69a114.677 114.677 0 0051.011-41.92c12.526-18.68 19.261-40.61 19.355-63.01.093-22.4-6.46-44.27-18.831-62.84a111.983 111.983 0 00-50.664-41.5c-20.663-8.48-43.428-10.62-65.416-6.15-21.987 4.47-42.21 15.35-58.109 31.26-21.226 21.35-33.202 50.16-33.305 80.14-.104 29.98 11.673 58.68 32.753 79.82l-.114.11zm8.904-151.83a102.546 102.546 0 0152.08-27.99c19.703-4 40.101-2.07 58.614 5.53a100.285 100.285 0 0145.391 37.19c11.083 16.64 16.953 36.24 16.869 56.31-.083 20.08-6.117 39.72-17.338 56.46a102.759 102.759 0 01-45.703 37.57c-18.577 7.76-38.991 9.85-58.662 6.02-19.671-3.84-37.714-13.43-51.849-27.56-18.907-18.99-29.437-44.77-29.276-71.68.162-26.91 11.002-52.74 30.138-71.81l-.264-.04zm129.051 129.05a82.828 82.828 0 0022.643-42.07c3.239-15.91 1.693-32.4-4.444-47.36a81.032 81.032 0 00-30.033-36.69c-13.445-8.96-29.278-13.71-45.496-13.65a82.645 82.645 0 00-45.621 14 82.942 82.942 0 00-30.363 36.92c-6.272 15.01-7.967 31.51-4.87 47.4a81.162 81.162 0 0022.266 41.9 81.331 81.331 0 0026.563 17.73 82 82 0 0031.412 6.15 82.669 82.669 0 0031.473-6.37 83.112 83.112 0 0026.734-17.92l-.264-.04zm-107.047-107.05a70.77 70.77 0 0135.927-19.34c13.595-2.77 27.673-1.45 40.452 3.79a69.216 69.216 0 0131.339 25.65c7.654 11.48 11.711 25.01 11.658 38.86-.052 13.85-4.212 27.41-11.952 38.96a70.85 70.85 0 01-31.534 25.94c-12.819 5.35-26.907 6.8-40.483 4.16a69.4 69.4 0 01-35.782-19.02c-12.999-13.12-20.229-30.9-20.109-49.44.119-18.55 7.579-36.35 20.748-49.52l-.264-.04zm21.964 76.66a38.165 38.165 0 01-10.473-19.71 38.663 38.663 0 012.294-22.3 38.998 38.998 0 0114.288-17.36 38.872 38.872 0 0121.463-6.58 38.266 38.266 0 0121.4 6.43 38.138 38.138 0 0114.12 17.27 38.467 38.467 0 012.077 22.28 38.944 38.944 0 01-10.666 19.78c-7.243 7.18-17.007 11.24-27.165 11.28-10.159.04-19.89-3.93-27.073-11.05l-.265-.04zm36.628 183.71l30.684-30.68 30.429 30.43-30.684 30.68-30.429-30.43zm50.703 50.7l30.683-30.68 30.429 30.43-30.683 30.68-30.429-30.43zm50.702 50.71l30.684-30.69 30.429 30.43-30.684 30.69-30.429-30.43zm50.741 50.74l30.683-30.69 30.392 30.4-30.684 30.68-30.391-30.39zm-36.038-207.4l-30.684 30.69-30.429-30.43 30.684-30.69 30.429 30.43zm-10.41 50.96l30.683-30.68 30.43 30.43-30.684 30.68-30.429-30.43z" fill="#fff"/></g><g filter="url(#filter1_d_1297_440)" opacity=".03" clip-path="url(#clip1_1297_440)"><path d="M572.664 933.923l.988-291.663-11.898.088-1.007 296.27 103.86 110.762-1.124 369.73 96.929 96.93c-5.965 7.32-8.975 16.58-8.433 25.96.543 9.38 4.6 18.18 11.362 24.65a37.077 37.077 0 0025.132 10.27 37.68 37.68 0 0025.575-9.56 37.74 37.74 0 0012.455-24.31c.962-9.36-1.633-18.71-7.268-26.18a36.977 36.977 0 00-23.138-14.16 37.557 37.557 0 00-26.738 5.36l-94.033-94.03 1.273-369.35-103.935-110.767zm216.349 579.927a24.924 24.924 0 0117.756 7.29 24.972 24.972 0 017.295 17.76 25.417 25.417 0 01-4.427 13.78 25.513 25.513 0 01-11.245 9.16 25.36 25.36 0 01-14.372 1.52c-4.826-.9-9.27-3.2-12.786-6.61a24.967 24.967 0 01-6.666-12.78c-.92-4.83-.402-9.84 1.489-14.4a25.46 25.46 0 019.153-11.28 25.38 25.38 0 0113.803-4.44zm-2.056-495.12l-1.123 369.73 98.847 98.85-.925 294.91a37.617 37.617 0 00-17.26 10.83 37.498 37.498 0 00-9.059 18.24 37.04 37.04 0 001.851 20.2c2.483 6.42 6.71 12 12.207 16.12a36.88 36.88 0 0018.914 7.22 37.33 37.33 0 0019.964-3.85 37.533 37.533 0 0015.046-13.75 37.342 37.342 0 005.628-19.55 37.062 37.062 0 00-10.298-25.47 37.032 37.032 0 00-25.014-11.36l1.054-298.57-98.886-98.89 1.274-369.36-103.86-110.758 1.025-291.625-11.935.049-1.007 296.347 103.557 110.687zm131.852 799.15a25.457 25.457 0 01-5.737 16.09 25.584 25.584 0 01-14.616 8.88 25.22 25.22 0 01-16.85-2.38 24.956 24.956 0 01-11.423-12.54 25.239 25.239 0 01-.801-17.01 25.585 25.585 0 0110.185-13.75c4.873-3.27 10.719-4.77 16.539-4.22 5.82.54 11.253 3.09 15.374 7.21a24.412 24.412 0 015.468 8.1 24.601 24.601 0 011.861 9.62zM602.398 1512.4l1.237-360.6a21.456 21.456 0 01-12.218-8.93 21.594 21.594 0 01-3.288-14.81c.73-5.19 3.308-9.95 7.258-13.41a21.832 21.832 0 0114.239-5.43 21.479 21.479 0 0114.228 5.22 21.456 21.456 0 017.231 13.3c.72 5.18-.458 10.46-3.316 14.86a21.9 21.9 0 01-12.236 9.11l-1.096 363.02-52.301 115.56a21.18 21.18 0 016.29 12.93 21.49 21.49 0 01-3.392 14.05 21.586 21.586 0 01-11.529 8.76 21.297 21.297 0 01-14.41-.51 21.1 21.1 0 01-10.725-9.56 21.277 21.277 0 01-2.152-14.24 21.566 21.566 0 017.403-12.44 21.53 21.53 0 0113.583-4.97c1.483 0 2.961.13 4.417.4l50.777-112.31zm-499.602 522.17a37.327 37.327 0 008.151-11.99 37.052 37.052 0 002.948-14.16c.02-4.89-.909-9.74-2.735-14.26l115.653-73.08 1.496-422.76 107.614-65.49 6.5-1080.36-11.936.05-6.471 1073.64-107.803 65.22-1.761 423.03-110.124 69.5c-.601-.6-1.166-1.17-1.767-1.77a37.025 37.025 0 00-19.061-10.29 37.527 37.527 0 00-21.656 2.09 37.846 37.846 0 00-16.93 13.78 37.664 37.664 0 00-6.48 20.81 37.129 37.129 0 006.158 20.79 36.912 36.912 0 0016.717 13.76 37.276 37.276 0 0021.623 2.07 37.772 37.772 0 0019.22-10.32l.644-.26zm-51.335-26c-.123-3.39.44-6.78 1.654-9.96a25.547 25.547 0 0113.728-14.31 25.295 25.295 0 019.881-2.07c3.394-.02 6.75.65 9.87 1.96a24.929 24.929 0 018.281 5.67 24.98 24.98 0 015.371 8.49 25.06 25.06 0 011.601 9.93 25.344 25.344 0 01-4.392 13.84 25.5 25.5 0 01-11.273 9.19 25.338 25.338 0 01-14.417 1.49 24.966 24.966 0 01-12.785-6.7 24.996 24.996 0 01-7.556-17.57l.037.04zm95.129-323.52a21.25 21.25 0 01-15.006-4.58 21.136 21.136 0 01-7.72-13.64 21.471 21.471 0 013.748-15.3 21.578 21.578 0 0113.187-8.68l.585-213.33 112.754-75.14.779-223.45a21.085 21.085 0 01-12.017-8.7 21.234 21.234 0 01-3.347-14.48 21.598 21.598 0 016.95-13.24 21.567 21.567 0 0113.869-5.54 21.208 21.208 0 0114.049 4.83 21.138 21.138 0 017.4 12.86 21.478 21.478 0 01-2.845 14.65 21.62 21.62 0 01-11.707 9.31l-.805 229.87-112.754 75.14-.711 207.05a21.167 21.167 0 0113.32 8.5 21.26 21.26 0 013.718 15.39 21.56 21.56 0 01-7.932 13.79 21.476 21.476 0 01-15.212 4.61l-.303.08zm929.76 268.98a36.723 36.723 0 0020.78-10.47c6-5.9 9.87-13.63 10.98-21.94 1.1-8.32-.61-16.74-4.87-23.92a37.035 37.035 0 00-18.64-15.68c-7.81-2.97-16.42-3.22-24.44-.72a37.866 37.866 0 00-19.78 14.54 37.647 37.647 0 00-6.67 23.58 37.07 37.07 0 009.3 22.54 37.036 37.036 0 0021.29 11.86l-.51 121.62 49.55 37.79-2.46 635.94 11.94-.05 2.67-642.1-49.66-37.45.52-115.54zm-30.52-36.51a25.39 25.39 0 015.78-16.02c3.71-4.53 8.87-7.64 14.6-8.81 5.72-1.16 11.66-.31 16.79 2.41a24.94 24.94 0 0111.37 12.53c2.21 5.38 2.49 11.37.77 16.96a25.521 25.521 0 01-10.16 13.7 25.399 25.399 0 01-16.49 4.21c-5.8-.54-11.22-3.08-15.33-7.18-2.35-2.32-4.2-5.09-5.46-8.15-1.26-3.05-1.9-6.34-1.87-9.65zM566.751 3279.76l11.936-.05.851-204.64-42.013-42.02 1.261-302.99-38.554-38.56.499-119.73 41.831-31.97 2.015-484.07a36.922 36.922 0 0018.814-10.16 37.787 37.787 0 0011.116-22.17 37.196 37.196 0 00-5.084-24.14 36.975 36.975 0 00-19.063-15.58 37.399 37.399 0 00-24.712-.19 37.804 37.804 0 00-19.565 15.26 37.613 37.613 0 00-5.869 24.06 37.079 37.079 0 0010.391 22.34 37.054 37.054 0 0022.111 10.86l-2.026 477.68-41.644 32.39-.808 130.42 38.592 38.59-1.299 302.96 42.051 42.05-.831 199.66zm-54.732-1260.15a25.45 25.45 0 015.736-16.09 25.531 25.531 0 0114.617-8.88 25.22 25.22 0 0116.85 2.38 24.95 24.95 0 0111.422 12.54 25.236 25.236 0 01.801 17.01 25.583 25.583 0 01-10.184 13.75 25.475 25.475 0 01-16.539 4.22 24.996 24.996 0 01-15.374-7.21 24.855 24.855 0 01-5.435-8.12 24.938 24.938 0 01-1.894-9.6zm-97.587-147.81l-60.428-73.4.343-73.38 61.006-83.58.407-97.6a37.745 37.745 0 0017.811-8.95 37.811 37.811 0 0010.786-16.78 37.42 37.42 0 00.714-19.86 37.022 37.022 0 00-9.56-17.34 37.01 37.01 0 00-14.944-9.47 37.337 37.337 0 00-17.683-1.47 37.723 37.723 0 00-16.436 6.86 37.828 37.828 0 00-11.48 13.65 37.538 37.538 0 00-3.936 17.34 37.113 37.113 0 004.496 17.14 36.867 36.867 0 0011.915 13.07 37.114 37.114 0 0016.645 6.05l-.389 93.37-61.044 83.61-.529 81.7 60.278 73.25-3.683 911.82 11.898-.09 3.813-915.94zm-30.512-364.27a25.307 25.307 0 014.267-14.02 25.457 25.457 0 0111.325-9.35 25.221 25.221 0 0114.557-1.51c4.882.95 9.362 3.33 12.87 6.83a24.78 24.78 0 015.475 8.13 24.96 24.96 0 011.903 9.64c-.011 3.31-.678 6.6-1.963 9.66a25.356 25.356 0 01-5.525 8.19 25.11 25.11 0 01-14.005 7.08l-7.554.03a25.196 25.196 0 01-13.983-6.92 24.757 24.757 0 01-5.515-8.06 24.847 24.847 0 01-1.966-9.59l.114-.11zm418.098 1210.03l1.137-273.16-49.548-37.56.492-118.38a21.108 21.108 0 01-12.004-8.8 21.27 21.27 0 01-3.231-14.57c.714-5.1 3.243-9.78 7.122-13.19a21.479 21.479 0 0113.991-5.38 21.224 21.224 0 0114.013 5.08 21.168 21.168 0 017.179 13.05 21.451 21.451 0 01-3.169 14.63 21.631 21.631 0 01-11.965 9.06l-.468 112.55 49.511 37.53-1.2 279.09-11.86.05zm149.987-300.07l-1.261 302.92-38.914 38.92-.498 119.73 41.604 31.59-2.038 489.66-11.936.05 2.013-483.47-41.605-31.59.582-130.57 38.876-38.88 1.299-302.95 42.365-42.37.756-190.55a21.1 21.1 0 01-11.656-9.26 21.276 21.276 0 01-2.674-14.68 21.58 21.58 0 017.616-12.92 21.493 21.493 0 0114.18-4.84 21.16 21.16 0 0113.806 5.61c3.76 3.47 6.13 8.2 6.68 13.31.54 5.11-.78 10.26-3.72 14.51-2.95 4.24-7.31 7.3-12.298 8.6l-.813 195.12-42.364 42.06zM1097.82 960.48l-41.6-31.591 2.03-489.657 11.94-.05-2.01 483.463 41.6 31.591-.54 130.834-38.92 38.92-1.3 302.95-42.36 42.37-.8 190.59c4.89 1.58 9.02 4.88 11.64 9.29 2.62 4.4 3.56 9.62 2.63 14.69-.92 5.07-3.64 9.65-7.65 12.91a21.53 21.53 0 01-14.2 4.79 21.142 21.142 0 01-13.79-5.65 21.193 21.193 0 01-6.63-13.35 21.449 21.449 0 013.78-14.49c2.95-4.24 7.33-7.28 12.33-8.56l.77-195.08 42.41-42.4 1.26-302.92 38.91-38.92.5-119.73zm152.74 815.95l60.24 73.21-.26 73.39-61.05 83.61-.4 97.6a36.923 36.923 0 00-19.27 10.24 37.761 37.761 0 00-10.95 22.17c-1.04 8.39.78 16.87 5.18 24.05a36.928 36.928 0 0019.04 15.48 37.313 37.313 0 0024.64.19 37.834 37.834 0 0019.54-15.18c4.62-7.11 6.72-15.56 5.94-23.97-.78-8.4-4.38-16.28-10.23-22.33a37.018 37.018 0 00-21.96-11l.39-93.45 61.01-83.57.34-81.59-60.28-73.24 3.83-911.596-11.97.012-3.78 915.974zm30.55 364.31c0 4.83-1.38 9.57-3.99 13.66a25.535 25.535 0 01-10.72 9.4 25.32 25.32 0 01-14.06 2.15 24.937 24.937 0 01-20.62-17.64 25.22 25.22 0 01-.03-14.2 25.55 25.55 0 017.65-12.02 25.44 25.44 0 0112.91-6.04l7.55-.03c5.31.71 10.22 3.15 13.98 6.93 2.36 2.29 4.23 5.04 5.51 8.08 1.27 3.03 1.93 6.3 1.94 9.6l-.12.11zm-672.154-298.26c15.767 15.78 35.899 26.49 57.851 30.78 21.951 4.28 44.734 1.95 65.468-6.7a114.614 114.614 0 0051.012-41.92c12.526-18.68 19.261-40.6 19.354-63 .094-22.41-6.459-44.28-18.83-62.85a111.899 111.899 0 00-50.664-41.49c-20.663-8.49-43.428-10.63-65.416-6.16-21.988 4.47-42.21 15.35-58.109 31.27-21.226 21.34-33.202 50.16-33.305 80.14-.104 29.97 11.673 58.67 32.753 79.81l-.114.12zm8.904-151.84a102.546 102.546 0 0152.08-27.99c19.703-4 40.101-2.07 58.613 5.53a100.346 100.346 0 0145.392 37.19c11.082 16.65 16.953 36.24 16.869 56.32-.083 20.07-6.117 39.72-17.338 56.45a102.693 102.693 0 01-45.703 37.57c-18.577 7.76-38.991 9.85-58.662 6.02a100.406 100.406 0 01-51.849-27.56c-18.907-18.99-29.437-44.77-29.276-71.68.162-26.9 11.002-52.73 30.138-71.81l-.264-.04zm129.051 129.05a82.773 82.773 0 0022.643-42.06c3.239-15.92 1.693-32.4-4.444-47.37a81.032 81.032 0 00-30.033-36.69 81.38 81.38 0 00-45.497-13.64c-16.219.06-32.095 4.93-45.62 13.99a83.022 83.022 0 00-30.363 36.93c-6.272 15-7.967 31.5-4.87 47.39a81.162 81.162 0 0022.266 41.9 81.18 81.18 0 0026.562 17.73 81.635 81.635 0 0031.413 6.15 82.488 82.488 0 0031.473-6.37 83.112 83.112 0 0026.734-17.92l-.264-.04zm-107.048-107.04a70.719 70.719 0 0135.928-19.35c13.595-2.76 27.673-1.44 40.452 3.8a69.195 69.195 0 0131.339 25.64 69.6 69.6 0 0111.658 38.86c-.052 13.85-4.212 27.41-11.953 38.97a70.886 70.886 0 01-31.533 25.93 70.21 70.21 0 01-40.483 4.16 69.255 69.255 0 01-35.782-19.02c-12.999-13.12-20.229-30.89-20.109-49.44.119-18.54 7.579-36.35 20.748-49.52l-.265-.03zm21.965 76.65a38.165 38.165 0 01-10.473-19.71 38.638 38.638 0 012.294-22.29 39.022 39.022 0 0114.287-17.37 38.877 38.877 0 0121.464-6.58 38.347 38.347 0 0121.4 6.43 38.13 38.13 0 0114.119 17.27 38.468 38.468 0 012.078 22.28 38.944 38.944 0 01-10.666 19.78 38.799 38.799 0 01-27.166 11.28 38.17 38.17 0 01-27.072-11.05l-.265-.04zm36.628 183.71l30.683-30.68 30.429 30.43-30.683 30.68-30.429-30.43zm50.702 50.71l30.684-30.69 30.429 30.43-30.683 30.69-30.43-30.43zm50.703 50.7l30.684-30.68 30.429 30.43-30.684 30.68-30.429-30.43zm50.74 50.74l30.684-30.68 30.392 30.39-30.684 30.68-30.392-30.39zm-36.037-207.39l-30.684 30.68-30.429-30.43 30.684-30.68 30.429 30.43zm-10.41 50.95l30.683-30.68 30.43 30.43-30.684 30.68-30.429-30.43z" fill="#fff"/></g><defs><clipPath id="clip0_1297_440"><path fill="#fff" transform="translate(-823 2614)" d="M0 0h2960v3648H0z"/></clipPath><clipPath id="clip1_1297_440"><path fill="#fff" transform="translate(-822.912 -46)" d="M0 0h2960v3648H0z"/></clipPath><filter id="filter0_d_1297_440" x="34.425" y="3012.47" width="1292.32" height="3055.89" filterUnits="userSpaceOnUse" color-interpolation-filters="sRGB"><feFlood flood-opacity="0" result="BackgroundImageFix"/><feColorMatrix in="SourceAlpha" values="0 0 0 0 0 0 0 0 0 0 0 0 0 0 0 0 0 0 127 0" result="hardAlpha"/><feOffset dy="4"/><feGaussianBlur stdDeviation="2"/><feComposite in2="hardAlpha" operator="out"/><feColorMatrix values="0 0 0 0 0 0 0 0 0 0 0 0 0 0 0 0 0 0 0.25 0"/><feBlend in2="BackgroundImageFix" result="effect1_dropShadow_1297_440"/><feBlend in="SourceGraphic" in2="effect1_dropShadow_1297_440" result="shape"/></filter><filter id="filter1_d_1297_440" x="34.432" y="352.471" width="1292.32" height="3055.89" filterUnits="userSpaceOnUse" color-interpolation-filters="sRGB"><feFlood flood-opacity="0" result="BackgroundImageFix"/><feColorMatrix in="SourceAlpha" values="0 0 0 0 0 0 0 0 0 0 0 0 0 0 0 0 0 0 127 0" result="hardAlpha"/><feOffset dy="4"/><feGaussianBlur stdDeviation="2"/><feComposite in2="hardAlpha" operator="out"/><feColorMatrix values="0 0 0 0 0 0 0 0 0 0 0 0 0 0 0 0 0 0 0.25 0"/><feBlend in2="BackgroundImageFix" result="effect1_dropShadow_1297_440"/><feBlend in="SourceGraphic" in2="effect1_dropShadow_1297_440" result="shape"/></filter></defs></svg>