<svg width="15" height="39" viewBox="0 0 15 39" fill="none" xmlns="http://www.w3.org/2000/svg"><path d="M13.214 11.282c-.5 0-.905.522-.905 1.196v17.674c0 1.805-.485 3.283-1.422 4.544-.938 1.26-2.053 1.913-3.411 1.913-1.326 0-2.457-.63-3.395-1.892-.938-1.26-1.406-2.782-1.406-4.565V6.826c0-1.196.327-2.234.954-3.087.634-.864 1.406-1.326 2.327-1.326.922 0 1.694.462 2.328 1.326.627.853.954 1.891.954 3.087v19.848c0 1.239-.711 2.196-1.633 2.196-.889 0-1.616-1-1.616-2.196V16.348c0-.674-.388-1.196-.89-1.196-.5 0-.889.522-.889 1.196v10.326c0 1.283.324 2.37.986 3.261.663.891 1.455 1.326 2.41 1.326.953 0 1.753-.446 2.424-1.326.655-.86.986-1.935.986-3.26V6.825c0-1.87-.505-3.473-1.487-4.804C8.539.679 7.347 0 5.956 0c-1.39 0-2.582.679-3.572 2.022C1.402 3.353.897 4.956.897 6.826v23.326c0 2.457.646 4.544 1.923 6.261C4.097 38.13 5.65 39 7.476 39c1.827 0 3.41-.826 4.704-2.565 1.293-1.74 1.923-3.87 1.923-6.283V12.478c0-.674-.388-1.196-.889-1.196z" fill="#fff"/></svg>