<svg width="40" height="40" viewBox="0 0 40 40" fill="none" xmlns="http://www.w3.org/2000/svg"><g clip-path="url(#clip0_408:168)"><path fill-rule="evenodd" clip-rule="evenodd" d="M26.668 37.702L20.8 26.377c-.012.006-3.29 1.616-3.44 1.685-3.734 1.81-11.332-13.034-7.682-14.99l3.47-1.71L7.328 0l-3.51 1.732C1.115 3.14-.012 6.11.003 9.803c.045 11.504 11.185 30.022 20.353 30.195a6.349 6.349 0 002.795-.575c.202-.091 3.504-1.715 3.517-1.721zm6.667-9.369h-1.667V6.667h1.667v21.666zM30 25h-1.666V10H30v15zm6.667-1.667H35V11.667h1.667v11.666zm-10-1.666H25v-8.334h1.667v8.334zM23.335 20h-1.667v-5h1.667v5zM40 20h-1.666v-5H40v5zm-20-1.667h-1.666v-1.666H20v1.666z" fill="#BB071D"/></g><defs><clipPath id="clip0_408:168"><path fill="#fff" d="M0 0h40v40H0z"/></clipPath></defs></svg>