<svg width="18" height="18" viewBox="0 0 18 18" fill="none" xmlns="http://www.w3.org/2000/svg"><g clip-path="url(#clip0_681:1296)"><path d="M3.93 2.589a1.84 1.84 0 01-1.834 1.849A1.842 1.842 0 01.26 2.588c0-1.02.821-1.849 1.835-1.849 1.013 0 1.834.829 1.834 1.85zm.015 3.328H.247v11.836h3.698V5.917zm5.905 0H6.175v11.836H9.85V11.54c0-3.455 4.46-3.737 4.46 0v6.213H18v-7.494c0-5.83-6.6-5.617-8.15-2.748V5.917z" fill="#0077b5"/></g><defs><clipPath id="clip0_681:1296"><path fill="#0077b5" transform="translate(.247)" d="M0 0h17.753v17.753H0z"/></clipPath></defs></svg>