<svg width="19" height="19" viewBox="0 0 19 19" fill="none" xmlns="http://www.w3.org/2000/svg"><path d="M12.375 9.5a2.875 2.875 0 11-5.75 0 2.875 2.875 0 015.75 0zm6.11-3.953v7.906a5.037 5.037 0 01-5.032 5.031H5.547a5.037 5.037 0 01-5.031-5.03V5.546a5.037 5.037 0 015.03-5.03h7.907a5.037 5.037 0 015.031 5.03zM13.812 9.5a4.312 4.312 0 10-8.625 0 4.312 4.312 0 008.625 0zm1.437-4.672a1.078 1.078 0 10-2.156 0 1.078 1.078 0 002.156 0z" fill="url(#paint0_radial_1399_2)"/><defs><radialGradient id="paint0_radial_1399_2" cx="0" cy="0" r="1" gradientUnits="userSpaceOnUse" gradientTransform="translate(5.198 20.547) scale(22.9596)"><stop stop-color="#FFB140"/><stop offset=".256" stop-color="#FF5445"/><stop offset=".599" stop-color="#FC2B82"/><stop offset="1" stop-color="#8E40B7"/></radialGradient></defs></svg>