<svg width="91" height="68" viewBox="0 0 91 68" fill="none" xmlns="http://www.w3.org/2000/svg"><g clip-path="url(#clip0_180_1325)"><path fill-rule="evenodd" clip-rule="evenodd" d="M50.284 19.665L36.715 11.97l-.029-4.512s.119-3.627 3.677-2.896l9.961 5.582-.04 9.523v-.003z" fill="url(#paint0_linear_180_1325)"/><path fill-rule="evenodd" clip-rule="evenodd" d="M28.492 39.246l8.361-4.939-.164-26.85s.118-3.628 3.676-2.897c0 0-2.224-1.32-5.507-.578-2.955.728-6.198 3.388-6.406 7.449-.208 4.06.043 27.812.043 27.812l-.003.003z" fill="url(#paint1_linear_180_1325)"/><path fill-rule="evenodd" clip-rule="evenodd" d="M40.355 20.351l13.568 7.694.03 4.511s-.12 3.628-3.678 2.897l-9.96-5.583.04-9.522v.003z" fill="url(#paint2_linear_180_1325)"/><path fill-rule="evenodd" clip-rule="evenodd" d="M62.146.77l-8.36 4.938.164 26.851s-.119 3.628-3.677 2.897c0 0 2.224 1.32 5.508.577 2.954-.727 6.198-3.387 6.406-7.448.208-4.06-.044-27.813-.044-27.813l.003-.003z" fill="url(#paint3_linear_180_1325)"/><path d="M10.348 47.961c0 1.412-.453 2.582-1.36 3.51-.907.926-2.062 1.388-3.466 1.388H.12v-9.585h5.403c1.413 0 2.57.43 3.475 1.29.904.861 1.354 1.993 1.354 3.397h-.003zm-1.669.142c0-.928-.297-1.684-.892-2.273-.595-.59-1.35-.884-2.268-.884H1.774v6.244h3.745c.916 0 1.673-.286 2.268-.855.595-.572.892-1.314.892-2.232zm9.407 4.756h-1.67v-9.585h1.67v9.585zm16.41 0h-2.455l-4.756-3.97c-.327-.281-.491-.538-.491-.772 0-.225.164-.476.49-.757l4.757-4.084h2.455l-5.713 4.884 5.713 4.702v-.003zm-8.014 0h-1.67v-9.585h1.67v9.585zm15.442 0h-1.669v-9.585h1.67v9.585zm16.272-.828c0 .618-.21.927-.632.927-.31 0-.656-.191-1.04-.575l-6.146-6.175v6.651h-1.655v-8.756c0-.226.06-.42.182-.584.121-.164.295-.245.52-.245.309 0 .627.164.953.49l6.146 6.161v-6.651h1.67v8.757h.002zm19.021.828l-2.145-.014-1.615-2.68h-4.546l1.011-1.655h2.539l-1.67-2.764-4.323 7.102h-2.146l5.207-8.659c.13-.225.315-.43.549-.618.28-.216.534-.323.757-.323.242 0 .496.104.756.309.226.179.408.387.546.632l5.08 8.673v-.003zm13.087-4.029H84.83v-1.669h5.473v1.67zm.436-3.887h-6.611v7.916h-1.67v-9.585h8.28v1.669zM3.835 57.223c0 .494-.16.904-.48 1.228-.32.323-.722.485-1.21.485H.253V55.58h1.892c.494 0 .901.15 1.216.453.318.3.474.7.474 1.19zm-.584.05c0-.324-.104-.59-.312-.798-.208-.208-.473-.309-.794-.309H.834v2.187h1.311c.32 0 .586-.101.794-.3.208-.2.312-.46.312-.783v.002zm5.22.254h-1.92v-.584H8.47v.584zm.152 1.409h-2.9V55.58h2.9v.586H6.307v2.187h2.316v.586-.003zm6.305-3.356l-1.918 3.082c-.133.22-.254.329-.364.329-.104 0-.225-.11-.358-.33l-1.877-3.081h.75l1.5 2.492 1.513-2.492h.754zm4.442 1.947h-1.918v-.584h1.918v.584zm.153 1.409h-2.9V55.58h2.9v.586h-2.316v2.187h2.316v.586-.003zm4.806 0h-2.894V55.58h.586v2.773h2.31v.586l-.002-.003zm6.088-1.715c0 .493-.159.904-.476 1.227-.318.323-.723.485-1.213.485h-.94c-.487 0-.892-.162-1.212-.485-.32-.324-.48-.734-.48-1.227 0-.491.16-.887.474-1.19.318-.3.722-.454 1.216-.454h.939c.496 0 .904.15 1.218.454.315.3.471.699.471 1.19h.003zm-.58.049c0-.324-.104-.59-.312-.798-.208-.208-.474-.309-.8-.309h-.939c-.32 0-.586.104-.794.31-.208.205-.312.47-.312.797 0 .32.104.58.312.782.208.2.473.3.794.3h.939c.323 0 .592-.1.8-.3.208-.199.312-.459.312-.782zm6.16-.483c0 .367-.136.665-.404.89-.249.21-.564.315-.939.315h-1.479v-.58h1.574a.704.704 0 00.485-.174.58.58 0 00.197-.456.57.57 0 00-.197-.454.718.718 0 00-.485-.168h-1.917v2.773h-.584v-3.356h2.409c.375 0 .69.107.939.32.268.223.404.52.404.89h-.003zm6.84 2.152h-.66l-.485-2.348-1.126 2.166c-.075.147-.179.222-.315.222-.15 0-.265-.075-.343-.225l-1.127-2.163-.482 2.348h-.664l.75-3.082a.464.464 0 01.13-.23.32.32 0 01.234-.099c.127 0 .249.11.364.33l1.12 2.197 1.127-2.198c.116-.22.237-.329.364-.329.087 0 .165.035.237.104a.488.488 0 01.127.225l.748 3.082zm4.785-1.415h-1.918v-.584h1.918v.584zm.153 1.41h-2.9v-3.357h2.9v.586h-2.316v2.187h2.316v.586-.003zm5.41-.29c0 .217-.076.324-.223.324-.107 0-.228-.067-.364-.202l-2.152-2.164v2.331h-.58v-3.067c0-.078.02-.147.063-.205a.214.214 0 01.182-.087c.107 0 .22.058.335.174l2.152 2.157v-2.33h.586v3.069zm5.227-2.48h-1.323v2.772h-.58v-2.773h-1.326v-.586h3.229v.586zm8.667 2.772h-2.134c-.488 0-.893-.162-1.213-.485-.32-.324-.48-.734-.48-1.228 0-.49.16-.886.474-1.19.318-.3.722-.453 1.216-.453h1.892v.586h-1.892c-.32 0-.586.104-.794.31-.208.204-.312.47-.312.797 0 .32.104.58.312.782.208.2.473.3.794.3h1.548v-.733h-1.591v-.537h2.177v1.854l.003-.003zm5.878 0h-.867l-.939-.944H69.89v-.58h1.574a.984.984 0 00.546-.142.542.542 0 00.251-.477c0-.419-.265-.63-.797-.63h-1.917v2.773h-.584V55.58h2.409c.433 0 .783.093 1.045.28.306.214.457.526.457.939 0 .283-.09.526-.266.728-.165.19-.387.323-.667.398l1.017 1.014v-.003zm6.192-1.715c0 .493-.16.904-.477 1.227-.318.323-.722.485-1.213.485h-.939c-.488 0-.892-.162-1.213-.485-.32-.324-.479-.734-.479-1.227 0-.491.159-.887.474-1.19.317-.3.722-.454 1.215-.454h.94c.496 0 .903.15 1.218.454.315.3.47.699.47 1.19h.004zm-.58.049c0-.324-.105-.59-.313-.798-.208-.208-.474-.309-.8-.309h-.939c-.32 0-.586.104-.794.31-.208.205-.312.47-.312.797 0 .32.104.58.312.782.208.2.474.3.794.3h.94c.323 0 .591-.1.8-.3.207-.199.311-.459.311-.782zm6.237.155c0 .54-.161.936-.485 1.185-.286.216-.707.323-1.268.323h-.202c-.56 0-.982-.107-1.268-.323-.323-.249-.485-.644-.485-1.184v-1.849h.584v1.849c0 .404.138.67.418.8.18.08.497.124.953.124.382 0 .659-.058.835-.174.222-.144.335-.395.335-.75v-1.849h.586v1.849h-.002zm5.809-.638c0 .367-.136.665-.405.89-.248.21-.563.315-.938.315h-1.48v-.58h1.575a.704.704 0 00.485-.174.58.58 0 00.197-.456.57.57 0 00-.197-.454.719.719 0 00-.485-.168h-1.918v2.773h-.583v-3.356h2.408c.376 0 .69.107.94.32a1.1 1.1 0 01.403.89h-.002zM0 21.214c0 3.287 1.057 6.01 3.168 8.165 2.112 2.155 4.8 3.232 8.067 3.232h12.572V10.306H11.235c-3.287 0-5.981 1.002-8.084 3.004C1.051 15.314 0 17.948 0 21.212v.002zm3.887.327c0-2.155.69-3.92 2.074-5.291 1.384-1.372 3.14-2.057 5.274-2.057h8.72v14.534h-8.72c-2.134 0-3.89-.665-5.274-1.993-1.383-1.329-2.074-3.059-2.074-5.193zM91 21.214c0 3.287-1.057 6.01-3.168 8.165-2.111 2.155-4.8 3.232-8.067 3.232H67.193V10.306h12.572c3.287 0 5.982 1.002 8.084 3.004C89.95 15.314 91 17.948 91 21.212v.002zm-3.887.327c0-2.155-.69-3.92-2.074-5.291-1.383-1.372-3.14-2.057-5.274-2.057h-8.719v14.534h8.72c2.134 0 3.89-.665 5.273-1.993 1.384-1.329 2.074-3.059 2.074-5.193z" fill="#FEFEFE"/></g><defs><linearGradient id="paint0_linear_180_1325" x1="36.695" y1="8.476" x2="50.801" y2="14.065" gradientUnits="userSpaceOnUse"><stop stop-color="#FECD29"/><stop offset="1" stop-color="#FBE889" stop-opacity="0"/></linearGradient><linearGradient id="paint1_linear_180_1325" x1="34.731" y1="36.087" x2="32.888" y2="4.352" gradientUnits="userSpaceOnUse"><stop stop-color="#FECD29"/><stop offset="1" stop-color="#FBE889"/></linearGradient><linearGradient id="paint2_linear_180_1325" x1="53.944" y1="31.54" x2="39.838" y2="25.951" gradientUnits="userSpaceOnUse"><stop stop-color="#FECD29"/><stop offset="1" stop-color="#FBE889" stop-opacity="0"/></linearGradient><linearGradient id="paint3_linear_180_1325" x1="55.908" y1="3.929" x2="57.751" y2="35.664" gradientUnits="userSpaceOnUse"><stop stop-color="#FECD29"/><stop offset="1" stop-color="#FBE889"/></linearGradient><clipPath id="clip0_180_1325"><path fill="#fff" d="M0 0h91v68H0z"/></clipPath></defs></svg>